<svg xmlns="http://www.w3.org/2000/svg" viewBox="0 0 420 300" role="img"><style>text{font-family:Helvetica,Arial,sans-serif;fill:#1d2624} .m{fill:#5d6b68} .b{font-weight:700}</style><rect width="100%" height="100%" fill="#f3f5f4"/><g transform="translate(10,0)"><path d="M184,0 L211,0 L210,74 L185,72 Z" fill="#f2b8bf" stroke="#b0414f" stroke-width="2"/>
  <path d="M300,166 C318,148 352,150 357,172 C360,190 352,202 350,216 L352,292 L328,292 L326,216 C320,206 306,201 300,200 Z" fill="#f2b8bf" stroke="#b0414f" stroke-width="2"/>
  <path d="M186,68 C150,28 90,45 92,110 C94,182 122,252 200,258 C255,262 290,236 300,200 L300,168 C272,168 242,190 222,183 C204,176 205,140 208,110 C210,90 210,80 210,70 Z" fill="#f2b8bf" stroke="#b0414f" stroke-width="2.5"/>
  <line x1="300" y1="166" x2="300" y2="201" stroke="#b0414f" stroke-width="5"/>
<circle cx="330" cy="178" r="19" fill="#e0505f" opacity=".35"/>
<circle cx="330" cy="178" r="9" fill="#7a1d2b" stroke="#e8dcae" stroke-width="2.5"/>
<path d="M350,168 L378,128" stroke="#1d2624" stroke-width="1.2" fill="none"/>
<text x="398" y="108" font-size="14" class="b" text-anchor="end">DU · duodenal cap</text>
<text x="398" y="124" font-size="11" class="m" text-anchor="end">inflamed, friable rim</text>
<circle cx="215" cy="168" r="16" fill="#e0505f" opacity=".3"/>
<circle cx="215" cy="168" r="9" fill="#7a1d2b" stroke="#e8dcae" stroke-width="2.5"/>
<path d="M222,158 L250,82" stroke="#1d2624" stroke-width="1.2" fill="none"/>
<text x="232" y="56" font-size="14" class="b">GU · lesser curve</text>
<text x="232" y="72" font-size="11" class="m">near the incisura</text>
<text x="160" y="220" font-size="12" class="m" text-anchor="middle">stomach</text>
<text x="300" y="232" font-size="11" class="m" text-anchor="end">pylorus</text></g></svg>